# Blender 5.2.1 LTS
# www.blender.org
mtllib Pearl rifle wrapsplit mag body.mtl
o maybe_correct_sized_bc_mag.001
v 0.207451 0.286354 -0.076910
v 0.207451 0.286354 0.074262
v 0.226000 0.182870 -0.076910
v 0.226000 0.182870 0.074262
v 0.228152 0.094810 -0.076910
v 0.228152 0.094810 0.074262
v 0.214487 -0.001548 -0.076910
v 0.214487 -0.001548 0.074262
v 0.184712 -0.090290 -0.076910
v 0.184712 -0.090290 0.074262
v 0.146835 -0.179230 -0.076910
v 0.146835 -0.179230 0.074262
v 0.164017 -0.226774 0.089497
v 0.164017 -0.226774 -0.091314
v 0.157186 -0.275002 0.089497
v 0.164017 -0.226774 -0.091314
v 0.157186 -0.275002 -0.091314
v 0.164017 -0.226774 0.089497
v 0.207451 0.286354 -0.076910
v -0.089436 0.319150 0.074262
v -0.089436 0.319150 -0.076910
v 0.207451 0.286354 0.074262
v 0.157186 -0.275002 0.089497
v -0.196032 -0.227563 0.089497
v -0.189296 -0.179435 0.089497
v 0.164017 -0.226774 0.089497
v 0.207451 0.286354 0.074262
v 0.226000 0.182870 0.074262
v -0.071079 0.223573 0.074262
v -0.089436 0.319150 0.074262
v -0.060729 0.127802 0.074262
v 0.228152 0.094810 0.074262
v 0.214487 -0.001548 0.074262
v -0.074589 0.039448 0.074262
v 0.184712 -0.090290 0.074262
v -0.104364 -0.049294 0.074262
v 0.146835 -0.179230 0.074262
v -0.150247 -0.138430 0.074262
v 0.164017 -0.226774 0.089497
v -0.189296 -0.179435 0.089497
v -0.196032 -0.227563 -0.091314
v 0.157186 -0.275002 0.089497
v 0.157186 -0.275002 -0.091314
v -0.196032 -0.227563 0.089497
v 0.157186 -0.275002 -0.091314
v 0.164017 -0.226774 -0.091314
v -0.189296 -0.179435 -0.091314
v -0.196032 -0.227563 -0.091314
v 0.207451 0.286354 -0.076910
v -0.089436 0.319150 -0.076910
v -0.071079 0.223573 -0.076910
v 0.226000 0.182870 -0.076910
v -0.060729 0.127802 -0.076910
v 0.228152 0.094810 -0.076910
v 0.214487 -0.001548 -0.076910
v -0.074589 0.039448 -0.076910
v 0.184712 -0.090290 -0.076910
v -0.104364 -0.049294 -0.076910
v 0.146835 -0.179230 -0.076910
v -0.150247 -0.138430 -0.076910
v 0.164017 -0.226774 -0.091314
v -0.189296 -0.179435 -0.091314
v -0.150247 -0.138430 0.074262
v -0.189296 -0.179435 -0.091314
v -0.150247 -0.138430 -0.076910
v -0.189296 -0.179435 0.089497
v -0.089436 0.319150 -0.076910
v -0.071079 0.223573 0.074262
v -0.071079 0.223573 -0.076910
v -0.089436 0.319150 0.074262
v -0.060729 0.127802 0.074262
v -0.060729 0.127802 -0.076910
v -0.074589 0.039448 0.074262
v -0.074589 0.039448 -0.076910
v -0.104364 -0.049294 0.074262
v -0.104364 -0.049294 -0.076910
v -0.150247 -0.138430 0.074262
v -0.150247 -0.138430 -0.076910
v -0.196032 -0.227563 -0.091314
v -0.189296 -0.179435 -0.091314
v -0.189296 -0.179435 0.089497
v -0.196032 -0.227563 0.089497
vn 0.9849 0.1733 -0.0000
vn 0.9849 0.1732 -0.0000
vn 0.9929 0.1191 -0.0000
vn 0.9995 -0.0306 -0.0000
vn 0.9995 -0.0307 -0.0000
vn 0.9736 -0.2281 -0.0000
vn 0.9736 -0.2282 -0.0000
vn 0.9289 -0.3704 -0.0000
vn 1.0000 0.0008 -0.0000
vn 0.9292 0.3696 -0.0000
vn 0.9910 -0.1338 -0.0000
vn 0.1261 0.9920 -0.0000
vn -0.0000 -0.0000 1.0000
vn 0.0265 0.2058 0.9782
vn 0.0199 0.1496 0.9885
vn 0.0390 0.3310 0.9428
vn 0.0391 0.3310 0.9428
vn -0.1261 -0.9920 -0.0000
vn -0.0000 -0.0000 -1.0000
vn 0.0265 0.2058 -0.9782
vn 0.0199 0.1496 -0.9885
vn 0.0391 0.3310 -0.9428
vn -0.6806 0.7327 -0.0000
vn -0.7861 0.6181 -0.0000
vn -0.7861 0.6182 -0.0000
vn -0.9849 -0.1732 -0.0000
vn -0.9929 -0.1191 -0.0000
vn -0.9995 0.0306 -0.0000
vn -0.9736 0.2281 -0.0000
vn -0.9289 0.3704 -0.0000
vn -0.7863 0.6178 -0.0000
vn -0.9910 0.1339 -0.0000
vn -0.9910 0.1338 -0.0000
vt 48.094501 -48.679401
vt 47.905499 -48.679401
vt 48.094501 -48.799801
vt 47.905499 -48.799801
vt 48.094501 -48.918098
vt 47.905499 -48.918098
vt 48.094501 -49.032902
vt 47.905499 -49.032902
vt 48.094501 -49.144100
vt 47.905499 -49.144100
vt 48.094501 -49.253300
vt 47.905499 -49.253300
vt 47.886700 -49.311001
vt 48.113300 -49.311001
vt 47.886700 -49.377300
vt 48.113300 -49.377300
vt 47.753502 -49.094501
vt 48.118698 -48.905499
vt 47.753502 -48.905499
vt 48.118698 -49.094501
vt 48.168201 -49.377300
vt 47.740299 -49.242901
vt 47.730000 -49.309299
vt 48.178501 -49.311001
vt 48.246498 -48.679401
vt 47.899502 -48.743099
vt 48.264702 -48.799801
vt 47.881302 -48.622700
vt 47.904800 -48.861500
vt 48.270000 -48.918098
vt 48.252201 -49.032902
vt 47.887001 -48.976200
vt 48.211300 -49.144100
vt 47.846100 -49.087502
vt 48.157398 -49.253300
vt 47.792301 -49.196701
vt 47.730000 -49.113300
vt 48.168201 -48.886700
vt 47.730000 -48.886700
vt 48.168201 -49.113300
vt 47.831799 -49.377300
vt 48.259701 -49.242901
vt 47.821499 -49.311001
vt 48.270000 -49.309299
vt 47.753502 -48.679401
vt 48.100498 -48.743099
vt 48.118698 -48.622700
vt 47.735298 -48.799801
vt 48.095200 -48.861500
vt 47.730000 -48.918098
vt 47.747799 -49.032902
vt 48.112999 -48.976200
vt 47.788700 -49.144100
vt 48.153900 -49.087502
vt 47.842602 -49.253300
vt 48.207699 -49.196701
vt 48.259701 -49.113300
vt 48.259701 -48.886700
vt 48.207699 -48.905499
vt 48.207699 -49.094501
vt 47.905499 -48.622700
vt 48.094501 -48.743099
vt 48.094501 -48.622700
vt 47.905499 -48.743099
vt 48.094501 -48.861500
vt 47.905499 -48.861500
vt 48.094501 -48.976200
vt 47.905499 -48.976200
vt 48.094501 -49.087502
vt 47.905499 -49.087502
vt 48.094501 -49.196701
vt 47.905499 -49.196701
vt 47.886700 -49.309299
vt 48.113300 -49.242901
vt 47.886700 -49.242901
vt 48.113300 -49.309299
s 1
usemtl Meshpart1Mtl.005
f 1/1/1 2/2/2 3/3/3
f 3/3/3 2/2/2 4/4/3
f 4/4/3 5/5/4 3/3/3
f 5/5/4 4/4/3 6/6/5
f 5/5/4 6/6/5 7/7/6
f 7/7/6 6/6/5 8/8/7
f 8/8/7 9/9/8 7/7/6
f 9/9/8 8/8/7 10/10/8
f 10/10/8 11/11/9 9/9/8
f 11/11/9 10/10/8 12/12/9
f 13/13/10 11/11/9 12/12/9
f 13/13/10 14/14/10 11/11/9
f 16/14/11 18/13/11 15/15/11
f 15/15/11 17/16/11 16/14/11
f 19/17/12 20/18/12 22/19/12
f 19/17/12 21/20/12 20/18/12
f 23/21/13 25/22/13 24/23/13
f 25/22/13 23/21/13 26/24/13
f 27/25/13 29/26/13 28/27/13
f 29/26/13 27/25/13 30/28/13
f 31/29/13 28/27/13 29/26/13
f 28/27/13 31/29/13 32/30/13
f 32/30/13 31/29/13 33/31/13
f 34/32/13 33/31/13 31/29/13
f 33/31/13 34/32/13 35/33/13
f 36/34/13 35/33/13 34/32/13
f 35/33/13 36/34/13 37/35/14
f 38/36/15 37/35/14 36/34/13
f 38/36/15 39/24/16 37/35/14
f 39/24/16 38/36/15 40/22/17
f 41/37/18 42/38/18 44/39/18
f 41/37/18 43/40/18 42/38/18
f 45/41/19 47/42/19 46/43/19
f 47/42/19 45/41/19 48/44/19
f 49/45/19 51/46/19 50/47/19
f 51/46/19 49/45/19 52/48/19
f 52/48/19 53/49/19 51/46/19
f 53/49/19 52/48/19 54/50/19
f 55/51/19 53/49/19 54/50/19
f 53/49/19 55/51/19 56/52/19
f 57/53/19 56/52/19 55/51/19
f 56/52/19 57/53/19 58/54/19
f 59/55/20 58/54/19 57/53/19
f 58/54/19 59/55/20 60/56/21
f 61/43/22 60/56/21 59/55/20
f 60/56/21 61/43/22 62/42/22
f 64/57/23 66/58/23 63/59/24
f 64/57/23 63/59/24 65/60/25
f 67/61/26 68/62/27 70/63/26
f 67/61/26 69/64/27 68/62/27
f 69/64/27 71/65/28 68/62/27
f 69/64/27 72/66/28 71/65/28
f 72/66/28 73/67/29 71/65/28
f 72/66/28 74/68/29 73/67/29
f 74/68/29 75/69/30 73/67/29
f 74/68/29 76/70/30 75/69/30
f 76/70/30 77/71/31 75/69/30
f 76/70/30 78/72/31 77/71/31
f 79/73/32 81/74/33 80/75/32
f 81/74/33 79/73/32 82/76/33
