# Blender 5.2.1 LTS
# www.blender.org
mtllib Pearl rifle wrapsplit body good size.mtl
o RenderMesh_125980134342906
v -1.341350 0.154760 -0.085293
v -1.337596 0.011410 -0.085293
v -1.341350 0.154760 0.084672
v -1.337596 0.011410 0.084672
v 0.766771 0.147325 -0.125050
v 0.780084 -0.361045 0.125050
v 0.780084 -0.361045 -0.125050
v 0.766771 0.147325 0.125050
v 0.707421 -0.362948 0.125050
v 0.599039 0.142933 -0.125050
v 0.707421 -0.362948 -0.125050
v 0.599039 0.142933 0.125050
v 0.628984 -0.306243 -0.125050
v 0.550113 0.122332 0.125050
v 0.628984 -0.306243 0.125050
v 0.550113 0.122332 -0.125050
v 0.606991 -0.248058 -0.125050
v 0.531828 0.058263 -0.125050
v 0.606991 -0.248058 0.125050
v 0.531828 0.058263 0.125050
v 0.553725 -0.190695 -0.125050
v 0.495236 -0.006286 -0.125050
v 0.553725 -0.190695 0.125050
v 0.495236 -0.006286 0.125050
v 0.506562 -0.133170 -0.125050
v 0.517680 -0.069289 -0.125050
v 0.506562 -0.133170 0.125050
v 0.517680 -0.069289 0.125050
v -0.071092 -0.568345 -0.097010
v 0.145082 -0.509283 -0.097010
v -0.071092 -0.568345 0.097010
v 0.145082 -0.509283 0.097010
v 0.480508 0.124341 -0.111138
v 0.462830 0.031956 0.111138
v 0.462830 0.031956 -0.111138
v 0.480508 0.124341 0.111138
v 0.440044 0.134664 0.111138
v 0.440044 0.134664 -0.111138
v 0.398861 0.172445 0.111138
v 0.398861 0.172445 -0.111138
v 0.313329 0.190304 -0.111138
v 0.313329 0.190304 0.111138
v 0.216622 0.187771 -0.111138
v 0.216622 0.187771 0.111138
v 0.135763 0.205750 0.111138
v 0.135763 0.205750 -0.111138
v -0.701445 -0.019404 0.105817
v -0.701445 -0.019404 -0.105817
v -0.699006 -0.112547 -0.105817
v -0.699006 -0.112547 0.105817
v -0.655205 -0.250300 -0.105817
v -0.655205 -0.250300 0.105817
v -0.673104 -0.196390 -0.105817
v -0.673104 -0.196390 0.105817
v -0.664916 -0.141799 -0.105817
v -0.664916 -0.141799 0.105817
v -1.378647 -0.073830 -0.115609
v -1.227647 -0.072075 -0.115609
v -1.227647 -0.072075 0.114988
v -1.113457 -0.086232 0.114988
v -1.378647 -0.073830 0.114988
v -1.113457 -0.086232 -0.115609
v -1.379978 -0.022979 0.114988
v -1.000163 -0.066118 0.114988
v -1.379978 -0.022979 -0.115609
v -1.000163 -0.066118 -0.115609
v -1.382480 0.072542 0.114988
v -0.885730 -0.089502 0.114988
v -1.382480 0.072542 -0.115609
v -0.885730 -0.089502 -0.115609
v -0.776569 0.088408 0.114988
v -0.772678 -0.060161 0.114988
v -0.731824 0.089580 0.114988
v 0.126438 0.112054 -0.115609
v 0.126438 0.112054 0.114988
v -0.772678 -0.060161 -0.115609
v -0.728723 -0.028865 0.114988
v -0.728723 -0.028865 -0.115609
v 0.129540 -0.006391 -0.115609
v 0.129540 -0.006391 0.114988
v -0.664916 -0.141799 -0.105817
v -0.664916 -0.141799 0.105817
v -0.699006 -0.112547 -0.105817
v -0.699006 -0.112547 0.105817
v 0.462830 0.031956 -0.111138
v 0.433231 0.011084 0.104157
v 0.433231 0.011084 -0.104157
v 0.462830 0.031956 0.111138
v 0.419878 -0.054580 -0.104157
v 0.419878 -0.054580 0.104157
v 0.386441 -0.120771 -0.104157
v 0.433231 0.011084 0.104157
v 0.433231 0.011084 -0.104157
v 0.386441 -0.120771 0.104157
v 0.311138 -0.109766 0.104157
v 0.311138 -0.109766 -0.104157
v 0.268176 -0.125073 0.104157
v 0.268176 -0.125073 -0.104157
v 0.212005 -0.139627 0.104157
v 0.212005 -0.139627 -0.104157
v 0.144480 -0.127107 -0.104157
v 0.144480 -0.127106 0.104157
v 0.078474 -0.122333 -0.105817
v 0.078474 -0.122333 0.105817
v 0.053599 -0.172695 -0.105817
v 0.053599 -0.172695 0.105817
v 0.131920 -0.100837 0.105817
v 0.131920 -0.100837 -0.105817
v 0.035460 -0.094636 -0.097010
v 0.053632 -0.163371 0.097010
v 0.053632 -0.163371 -0.097010
v 0.035460 -0.094636 0.097010
v 0.056244 -0.232516 0.097010
v 0.056244 -0.232516 -0.097010
v 0.112201 -0.300263 0.097010
v 0.112201 -0.300263 -0.097010
v 0.131948 -0.368957 0.097010
v 0.131948 -0.368957 -0.097010
v 0.119942 -0.404592 0.097010
v 0.119942 -0.404592 -0.097010
v 0.147220 -0.461588 -0.097010
v 0.147220 -0.461588 0.097010
v 0.145082 -0.509283 -0.097010
v 0.145082 -0.509283 0.097010
v -1.341350 0.154760 0.084672
v 0.124222 0.193138 0.084672
v -1.341350 0.154760 -0.085293
v 0.124222 0.193138 -0.085293
v -0.316635 -0.272034 -0.105817
v -0.401393 -0.262176 0.105817
v -0.401393 -0.262176 -0.105817
v -0.316635 -0.272034 0.105817
v -0.455328 -0.263420 0.105817
v -0.455328 -0.263420 -0.105817
v -0.571138 -0.233766 0.105817
v -0.571138 -0.233766 -0.105817
v -0.655205 -0.250300 0.105817
v -0.655205 -0.250300 -0.105817
v 0.766771 0.147325 -0.125050
v 0.531828 0.058263 -0.125050
v 0.599039 0.142933 -0.125050
v 0.550113 0.122332 -0.125050
v 0.517680 -0.069289 -0.125050
v 0.495236 -0.006286 -0.125050
v 0.553725 -0.190695 -0.125050
v 0.506562 -0.133170 -0.125050
v 0.606991 -0.248058 -0.125050
v 0.780084 -0.361045 -0.125050
v 0.628984 -0.306243 -0.125050
v 0.707421 -0.362948 -0.125050
v 0.766771 0.147325 0.125050
v 0.606991 -0.248058 0.125050
v 0.780084 -0.361045 0.125050
v 0.628984 -0.306243 0.125050
v 0.707421 -0.362948 0.125050
v 0.553725 -0.190695 0.125050
v 0.517680 -0.069289 0.125050
v 0.506562 -0.133170 0.125050
v 0.531828 0.058263 0.125050
v 0.495236 -0.006286 0.125050
v 0.599039 0.142933 0.125050
v 0.550113 0.122332 0.125050
v -0.271616 -0.176247 0.105817
v -0.271616 -0.176247 -0.105817
v -0.208910 -0.176471 -0.105817
v -0.208910 -0.176471 0.105817
v -0.172505 -0.183820 -0.105817
v -0.172505 -0.183820 0.105817
v 0.053599 -0.172695 -0.105817
v 0.053599 -0.172695 0.105817
v 0.129540 -0.006391 -0.115609
v -0.728723 -0.028865 -0.115609
v -0.215290 0.011415 -0.115609
v 0.126438 0.112054 -0.115609
v -0.689259 -0.000996 -0.115609
v -0.217096 0.080394 -0.115609
v -0.734003 -0.002168 -0.115609
v -0.772678 -0.060161 -0.115609
v -0.754148 -0.002695 -0.115609
v -0.885730 -0.089502 -0.115609
v -0.755955 0.066284 -0.115609
v -1.000163 -0.066118 -0.115609
v -1.382480 0.072542 -0.115609
v -1.113457 -0.086232 -0.115609
v -1.227647 -0.072075 -0.115609
v -1.379978 -0.022979 -0.115609
v -1.378647 -0.073830 -0.115609
v -0.776569 0.088408 0.114988
v -0.885730 -0.089502 0.114988
v -0.754148 -0.002695 0.114988
v -0.772678 -0.060161 0.114988
v -0.728723 -0.028865 0.114988
v -1.000163 -0.066118 0.114988
v -0.755955 0.066284 0.114988
v -0.215290 0.011415 0.114988
v 0.129540 -0.006391 0.114988
v 0.126438 0.112054 0.114988
v -0.217096 0.080394 0.114988
v -0.731824 0.089580 0.114988
v -0.691065 0.067983 0.114988
v -0.735809 0.066811 0.114988
v -1.382480 0.072542 0.114988
v -1.113457 -0.086232 0.114988
v -1.227647 -0.072075 0.114988
v -1.379978 -0.022979 0.114988
v -1.378647 -0.073830 0.114988
v 0.140535 0.023516 -0.111138
v 0.135763 0.205750 -0.111138
v 0.216622 0.187771 -0.111138
v 0.220868 0.025620 -0.111138
v 0.307533 0.027889 -0.111138
v 0.313329 0.190304 -0.111138
v 0.398861 0.172445 -0.111138
v 0.440044 0.134664 -0.111138
v 0.462830 0.031956 -0.111138
v 0.480508 0.124341 -0.111138
v 0.440044 0.134664 0.111138
v 0.462830 0.031956 0.111138
v 0.480508 0.124341 0.111138
v 0.307533 0.027889 0.111138
v 0.398861 0.172445 0.111138
v 0.313329 0.190304 0.111138
v 0.216622 0.187771 0.111138
v 0.220868 0.025620 0.111138
v 0.140535 0.023516 0.111138
v 0.135763 0.205750 0.111138
v -0.271616 -0.176247 -0.105817
v -0.701445 -0.019404 -0.105817
v 0.129218 0.002348 -0.105817
v -0.664916 -0.141799 -0.105817
v -0.699006 -0.112547 -0.105817
v -0.571138 -0.233766 -0.105817
v -0.673104 -0.196390 -0.105817
v -0.655205 -0.250300 -0.105817
v -0.455328 -0.263420 -0.105817
v -0.401393 -0.262176 -0.105817
v -0.315106 -0.227437 -0.105817
v -0.316635 -0.272034 -0.105817
v -0.208910 -0.176471 -0.105817
v -0.172505 -0.183820 -0.105817
v 0.078474 -0.122333 -0.105817
v 0.131920 -0.100837 -0.105817
v 0.053599 -0.172695 -0.105817
v -0.217096 0.080394 0.114988
v -0.217096 0.080394 -0.115609
v -0.215290 0.011415 -0.115609
v -0.691065 0.067983 0.114988
v -0.215290 0.011415 0.114988
v -0.755955 0.066284 -0.115609
v -0.689259 -0.000996 -0.115609
v -0.735809 0.066811 0.114988
v -0.754148 -0.002695 0.114988
v -0.755955 0.066284 0.114988
v -0.734003 -0.002168 -0.115609
v -0.754148 -0.002695 -0.115609
v 0.129218 0.002348 0.105817
v 0.078474 -0.122333 0.105817
v 0.131920 -0.100837 0.105817
v -0.172505 -0.183820 0.105817
v 0.053599 -0.172695 0.105817
v -0.208910 -0.176471 0.105817
v -0.271616 -0.176247 0.105817
v -0.701445 -0.019404 0.105817
v -0.699006 -0.112547 0.105817
v -0.664916 -0.141799 0.105817
v -0.571138 -0.233766 0.105817
v -0.673104 -0.196390 0.105817
v -0.655205 -0.250300 0.105817
v -0.455328 -0.263420 0.105817
v -0.401393 -0.262176 0.105817
v -0.315106 -0.227437 0.105817
v -0.316635 -0.272034 0.105817
v 0.308059 0.007807 -0.104157
v 0.268176 -0.125073 -0.104157
v 0.221394 0.005537 -0.104157
v 0.212005 -0.139627 -0.104157
v 0.144480 -0.127107 -0.104157
v 0.141061 0.003434 -0.104157
v 0.311138 -0.109766 -0.104157
v 0.419878 -0.054580 -0.104157
v 0.386441 -0.120771 -0.104157
v 0.433231 0.011084 -0.104157
v 0.419878 -0.054580 0.104157
v 0.311138 -0.109766 0.104157
v 0.386441 -0.120771 0.104157
v 0.308059 0.007807 0.104157
v 0.433231 0.011084 0.104157
v 0.268176 -0.125073 0.104157
v 0.221394 0.005537 0.104157
v 0.212005 -0.139627 0.104157
v 0.144480 -0.127106 0.104157
v 0.141061 0.003434 0.104157
v 0.053632 -0.163371 -0.097010
v -0.187237 -0.153510 -0.097010
v 0.035460 -0.094636 -0.097010
v -0.187632 -0.247794 -0.097010
v 0.056244 -0.232516 -0.097010
v -0.149893 -0.329209 -0.097010
v -0.112876 -0.359200 -0.097010
v 0.112201 -0.300263 -0.097010
v -0.095217 -0.427949 -0.097010
v 0.131948 -0.368957 -0.097010
v 0.119942 -0.404592 -0.097010
v -0.095095 -0.497159 -0.097010
v 0.147220 -0.461588 -0.097010
v -0.100597 -0.526756 -0.097010
v -0.071092 -0.568345 -0.097010
v 0.145082 -0.509283 -0.097010
v 0.053632 -0.163371 0.097010
v -0.187237 -0.153510 0.097010
v -0.187632 -0.247794 0.097010
v 0.035460 -0.094636 0.097010
v 0.056244 -0.232516 0.097010
v -0.149893 -0.329209 0.097010
v -0.112876 -0.359200 0.097010
v 0.112201 -0.300263 0.097010
v -0.095217 -0.427949 0.097010
v 0.131948 -0.368957 0.097010
v 0.119942 -0.404592 0.097010
v -0.095095 -0.497159 0.097010
v 0.147220 -0.461588 0.097010
v -0.100597 -0.526756 0.097010
v -0.071092 -0.568345 0.097010
v 0.145082 -0.509283 0.097010
v -0.754917 0.026668 -0.085293
v -0.822421 0.108901 -0.085293
v -0.755955 0.066284 -0.085293
v -0.697078 0.112184 -0.085293
v -0.217096 0.080394 -0.085293
v -1.004477 0.104134 -0.085293
v -0.107587 0.127620 -0.085293
v -0.216059 0.040778 -0.085293
v 0.127975 0.049787 -0.085293
v 0.124222 0.193138 -0.085293
v -0.108718 0.170819 -0.085293
v -0.698210 0.155382 -0.085293
v -0.823552 0.152100 -0.085293
v -1.341350 0.154760 -0.085293
v -1.005608 0.147333 -0.085293
v -1.076601 0.145474 -0.085293
v -1.258656 0.140707 -0.085293
v -1.257525 0.097508 -0.085293
v -1.075469 0.102275 -0.085293
v -1.337596 0.011410 -0.085293
v -1.005608 0.147333 0.084672
v -1.075469 0.102275 0.084672
v -1.004477 0.104134 0.084672
v -0.754917 0.026668 0.084672
v -0.822421 0.108901 0.084672
v -1.337596 0.011410 0.084672
v -0.755955 0.066284 0.084672
v -1.257525 0.097508 0.084672
v -0.823552 0.152100 0.084672
v -1.341350 0.154760 0.084672
v -1.076601 0.145474 0.084672
v -1.258656 0.140707 0.084672
v -0.698210 0.155382 0.084672
v 0.124222 0.193138 0.084672
v -0.697078 0.112184 0.084672
v -0.108718 0.170819 0.084672
v -0.217096 0.080394 0.084672
v -0.107587 0.127620 0.084672
v 0.127975 0.049787 0.084672
v -0.216059 0.040778 0.084672
v 0.433231 0.011084 -0.104157
v 0.307533 0.027889 -0.111138
v 0.462830 0.031956 -0.111138
v 0.308059 0.007807 -0.104157
v 0.221394 0.005537 -0.104157
v 0.220868 0.025620 -0.111138
v 0.141061 0.003434 -0.104157
v 0.140535 0.023516 -0.111138
v 0.433231 0.011084 0.104157
v 0.307533 0.027889 0.111138
v 0.308059 0.007807 0.104157
v 0.462830 0.031956 0.111138
v 0.220868 0.025620 0.111138
v 0.221394 0.005537 0.104157
v 0.140535 0.023516 0.111138
v 0.141061 0.003434 0.104157
v -0.701445 -0.019404 0.105817
v 0.129218 0.002348 0.105817
v -0.701445 -0.019404 -0.105817
v 0.129218 0.002348 -0.105817
v -0.271616 -0.176247 -0.105817
v -0.271616 -0.176247 0.105817
v -0.315106 -0.227437 -0.105817
v -0.315106 -0.227437 0.105817
v -0.316635 -0.272034 -0.105817
v -0.316635 -0.272034 0.105817
v -1.076601 0.145474 0.084672
v -1.076601 0.145474 -0.085293
v -1.075469 0.102275 -0.085293
v -1.075469 0.102275 0.084672
v -1.258656 0.140707 0.084672
v -1.257525 0.097508 0.084672
v -1.258656 0.140707 -0.085293
v -1.257525 0.097508 -0.085293
v -0.822421 0.108901 -0.085293
v -0.822421 0.108901 0.084672
v -0.823552 0.152100 -0.085293
v -0.823552 0.152100 0.084672
v -1.004477 0.104134 0.084672
v -1.005608 0.147333 0.084672
v -1.004477 0.104134 -0.085293
v -1.005608 0.147333 -0.085293
v -0.107587 0.127620 -0.085293
v -0.107587 0.127620 0.084672
v -0.108718 0.170819 -0.085293
v -0.108718 0.170819 0.084672
v -0.697078 0.112184 0.084672
v -0.698210 0.155382 0.084672
v -0.697078 0.112184 -0.085293
v -0.698210 0.155382 -0.085293
v -0.187237 -0.153510 0.097010
v -0.187237 -0.153510 -0.097010
v -0.187632 -0.247794 -0.097010
v -0.187632 -0.247794 0.097010
v -0.149893 -0.329209 -0.097010
v -0.149893 -0.329209 0.097010
v -0.112876 -0.359200 -0.097010
v -0.112876 -0.359200 0.097010
v -0.095217 -0.427949 -0.097010
v -0.095217 -0.427949 0.097010
v -0.095095 -0.497159 -0.097010
v -0.095095 -0.497159 0.097010
v -0.100597 -0.526756 0.097010
v -0.100597 -0.526756 -0.097010
v -0.071092 -0.568345 0.097010
v -0.071092 -0.568345 -0.097010
v -0.754917 0.026668 0.084672
v -1.337596 0.011410 0.084672
v -0.754917 0.026668 -0.085293
v -1.337596 0.011410 -0.085293
v -0.755955 0.066284 -0.085293
v -0.755955 0.066284 0.084672
v -0.217096 0.080394 -0.085293
v -0.217096 0.080394 0.084672
v -0.216059 0.040778 -0.085293
v -0.216059 0.040778 0.084672
v 0.127975 0.049787 -0.085293
v 0.127975 0.049787 0.084672
vn -0.9997 -0.0262 -0.0000
vn 0.1628 0.9867 -0.0000
vn 0.2142 -0.9768 -0.0000
vn -0.1222 -0.9925 -0.0000
vn -0.1447 0.9895 -0.0000
vn -0.7556 -0.6551 -0.0000
vn -0.6086 0.7935 -0.0000
vn -0.7556 -0.6550 -0.0000
vn -0.8385 -0.5449 -0.0000
vn -0.9199 0.3922 -0.0000
vn -0.8386 -0.5448 -0.0000
vn -0.9199 0.3921 -0.0000
vn -0.7530 -0.6581 -0.0000
vn -0.9940 0.1092 -0.0000
vn -0.7529 -0.6581 -0.0000
vn -0.9541 -0.2996 -0.0000
vn -0.9961 -0.0887 -0.0000
vn 0.2636 -0.9646 -0.0000
vn 0.5378 0.8431 -0.0000
vn 0.9822 -0.1879 -0.0000
vn 0.3935 0.9193 -0.0000
vn 0.3540 0.9352 -0.0000
vn 0.0649 0.9979 -0.0000
vn 0.0681 0.9977 -0.0000
vn 0.2170 0.9762 -0.0000
vn -0.9491 -0.3151 -0.0000
vn -0.9960 -0.0890 -0.0000
vn -0.9889 0.1483 -0.0000
vn -0.1771 -0.9842 -0.0000
vn -0.0483 -0.9988 -0.0000
vn 0.0262 -0.9997 -0.0000
vn -0.1771 -0.9842 -0.0003
vn 0.0055 -1.0000 -0.0000
vn -0.2142 0.9768 -0.0000
vn -0.0262 0.9997 -0.0000
vn 0.3670 -0.9302 -0.0000
vn 0.1693 -0.9856 -0.0000
vn -0.6512 -0.7589 -0.0000
vn 0.5763 -0.8172 -0.0000
vn 0.9425 -0.3341 -0.0000
vn 0.0998 -0.9950 -0.0000
vn 0.9799 -0.1993 -0.0000
vn 0.0558 -0.9984 -0.0000
vn 0.0559 -0.9984 -0.0000
vn 0.2892 -0.9573 -0.0000
vn 0.0302 -0.9995 -0.0000
vn -0.1823 -0.9832 -0.0000
vn 0.5649 -0.8251 0.0001
vn 0.5649 -0.8252 -0.0000
vn 0.8966 -0.4429 -0.0000
vn 0.3731 -0.9278 -0.0000
vn 0.9668 0.2556 -0.0000
vn 0.9889 0.1489 -0.0000
vn 0.9888 0.1491 -0.0000
vn 0.9201 0.3916 -0.0000
vn 0.8749 0.4843 -0.0000
vn 0.9996 -0.0270 -0.0000
vn 0.9978 0.0661 -0.0000
vn 0.9777 0.2098 -0.0000
vn 0.9777 0.2099 -0.0000
vn 0.9990 -0.0448 -0.0000
vn -0.1155 -0.9933 -0.0000
vn -0.0391 -0.9992 -0.0000
vn -0.0774 -0.9970 -0.0000
vn 0.0018 -1.0000 -0.0000
vn 0.1930 -0.9812 -0.0000
vn -0.0000 -0.0000 -1.0000
vn -0.0000 -0.0000 1.0000
vn -0.0036 -1.0000 -0.0000
vn -0.0817 -0.9967 -0.0000
vn -0.0498 -0.9988 -0.0000
vn 0.0491 -0.9988 -0.0000
vn -0.1628 -0.9867 -0.0002
vn -0.1628 -0.9867 -0.0000
vn -0.2142 0.9768 0.0003
vn 0.0086 -0.3281 -0.9446
vn 0.0086 -0.3281 0.9446
vn 0.7621 -0.6475 -0.0000
vn 0.9142 -0.4053 -0.0000
vn 0.9994 -0.0343 -0.0000
vn 0.2142 -0.9768 0.0002
vn -0.2142 0.9768 0.0002
vn -1.0000 0.0042 -0.0000
vn -0.9750 -0.2222 -0.0000
vn -0.7653 -0.6436 -0.0000
vn -0.7653 -0.6437 -0.0000
vn -0.8063 -0.5915 -0.0000
vn -0.9918 -0.1277 -0.0000
vn -0.9918 -0.1278 -0.0000
vn -0.9958 0.0917 -0.0000
vn -0.9958 0.0919 -0.0000
vn -0.9690 -0.2471 -0.0000
vn -0.8156 -0.5786 -0.0000
vt 0.000000 0.000000
s 1
f 1/1/1 2/1/1 3/1/1
f 2/1/1 4/1/1 3/1/1
f 5/1/2 6/1/3 7/1/3
f 6/1/3 5/1/2 8/1/2
f 7/1/3 6/1/3 9/1/4
f 5/1/2 10/1/5 8/1/2
f 9/1/4 11/1/4 7/1/3
f 10/1/5 12/1/5 8/1/2
f 11/1/4 9/1/4 13/1/6
f 10/1/5 14/1/7 12/1/5
f 13/1/6 9/1/4 15/1/8
f 16/1/7 14/1/7 10/1/5
f 13/1/6 15/1/8 17/1/9
f 14/1/7 16/1/7 18/1/10
f 17/1/9 15/1/8 19/1/11
f 18/1/10 20/1/12 14/1/7
f 17/1/9 19/1/11 21/1/13
f 20/1/12 18/1/10 22/1/14
f 21/1/13 19/1/11 23/1/15
f 22/1/14 24/1/14 20/1/12
f 21/1/13 23/1/15 25/1/16
f 24/1/14 22/1/14 26/1/17
f 25/1/16 23/1/15 27/1/16
f 26/1/17 28/1/17 24/1/14
f 25/1/16 27/1/16 28/1/17
f 28/1/17 26/1/17 25/1/16
f 29/1/18 30/1/18 31/1/18
f 30/1/18 32/1/18 31/1/18
f 33/1/19 34/1/20 35/1/20
f 34/1/20 33/1/19 36/1/19
f 33/1/19 37/1/21 36/1/19
f 37/1/21 33/1/19 38/1/21
f 38/1/21 39/1/22 37/1/21
f 39/1/22 38/1/21 40/1/22
f 39/1/22 40/1/22 41/1/23
f 41/1/23 42/1/23 39/1/22
f 42/1/23 41/1/23 43/1/24
f 43/1/24 44/1/24 42/1/23
f 43/1/24 45/1/25 44/1/24
f 46/1/25 45/1/25 43/1/24
f 47/1/1 48/1/1 49/1/1
f 49/1/1 50/1/1 47/1/1
f 51/1/26 52/1/26 53/1/27
f 53/1/27 52/1/26 54/1/27
f 53/1/27 54/1/27 55/1/28
f 55/1/28 54/1/27 56/1/28
f 57/1/29 58/1/30 59/1/30
f 58/1/30 60/1/31 59/1/30
f 57/1/29 59/1/30 61/1/32
f 62/1/31 60/1/31 58/1/30
f 57/1/29 61/1/32 63/1/1
f 62/1/31 64/1/33 60/1/31
f 63/1/1 65/1/1 57/1/29
f 66/1/33 64/1/33 62/1/31
f 65/1/1 63/1/1 67/1/34
f 66/1/33 68/1/31 64/1/33
f 67/1/34 69/1/34 65/1/1
f 70/1/31 68/1/31 66/1/33
f 71/1/35 69/1/34 67/1/34
f 70/1/31 72/1/36 68/1/31
f 73/1/35 69/1/34 71/1/35
f 74/1/35 69/1/34 73/1/35
f 74/1/35 73/1/35 75/1/35
f 76/1/36 72/1/36 70/1/31
f 76/1/36 77/1/37 72/1/36
f 78/1/37 77/1/37 76/1/36
f 78/1/37 79/1/31 77/1/37
f 80/1/31 77/1/37 79/1/31
f 81/1/38 82/1/38 83/1/38
f 83/1/38 82/1/38 84/1/38
f 85/1/39 86/1/39 87/1/39
f 86/1/39 85/1/39 88/1/39
f 89/1/40 90/1/40 91/1/41
f 89/1/40 92/1/42 90/1/40
f 93/1/42 92/1/42 89/1/40
f 91/1/41 90/1/40 94/1/41
f 91/1/41 94/1/41 95/1/43
f 95/1/43 96/1/44 91/1/41
f 96/1/44 95/1/43 97/1/45
f 97/1/45 98/1/45 96/1/44
f 98/1/45 97/1/45 99/1/46
f 99/1/46 100/1/46 98/1/45
f 100/1/46 99/1/46 101/1/47
f 101/1/47 99/1/46 102/1/47
f 103/1/48 104/1/49 105/1/50
f 105/1/50 104/1/49 106/1/50
f 103/1/48 107/1/51 104/1/49
f 107/1/51 103/1/48 108/1/51
f 109/1/52 110/1/53 111/1/54
f 110/1/53 109/1/52 112/1/52
f 113/1/55 111/1/54 110/1/53
f 111/1/54 113/1/55 114/1/55
f 115/1/56 114/1/55 113/1/55
f 114/1/55 115/1/56 116/1/56
f 117/1/57 116/1/56 115/1/56
f 116/1/56 117/1/57 118/1/57
f 119/1/58 118/1/57 117/1/57
f 118/1/57 119/1/58 120/1/58
f 120/1/58 119/1/58 121/1/59
f 121/1/59 119/1/58 122/1/60
f 121/1/59 122/1/60 123/1/61
f 123/1/61 122/1/60 124/1/61
f 125/1/35 126/1/35 127/1/35
f 128/1/35 127/1/35 126/1/35
f 129/1/62 130/1/63 131/1/63
f 130/1/63 129/1/62 132/1/62
f 133/1/64 131/1/63 130/1/63
f 131/1/63 133/1/64 134/1/64
f 135/1/65 134/1/64 133/1/64
f 134/1/64 135/1/65 136/1/65
f 137/1/66 136/1/65 135/1/65
f 136/1/65 137/1/66 138/1/66
f 139/1/67 140/1/67 141/1/67
f 141/1/67 140/1/67 142/1/67
f 140/1/67 139/1/67 143/1/67
f 140/1/67 143/1/67 144/1/67
f 139/1/67 145/1/67 143/1/67
f 143/1/67 145/1/67 146/1/67
f 145/1/67 139/1/67 147/1/67
f 147/1/67 139/1/67 148/1/67
f 147/1/67 148/1/67 149/1/67
f 149/1/67 148/1/67 150/1/67
f 151/1/68 152/1/68 153/1/68
f 154/1/68 153/1/68 152/1/68
f 153/1/68 154/1/68 155/1/68
f 151/1/68 156/1/68 152/1/68
f 156/1/68 151/1/68 157/1/68
f 156/1/68 157/1/68 158/1/68
f 157/1/68 151/1/68 159/1/68
f 157/1/68 159/1/68 160/1/68
f 159/1/68 151/1/68 161/1/68
f 159/1/68 161/1/68 162/1/68
f 163/1/69 164/1/69 165/1/70
f 165/1/70 166/1/70 163/1/69
f 166/1/70 165/1/70 167/1/71
f 167/1/71 168/1/71 166/1/70
f 167/1/71 169/1/72 168/1/71
f 169/1/72 170/1/72 168/1/71
f 171/1/67 172/1/67 173/1/67
f 173/1/67 174/1/67 171/1/67
f 175/1/67 173/1/67 172/1/67
f 174/1/67 173/1/67 176/1/67
f 177/1/67 175/1/67 172/1/67
f 178/1/67 177/1/67 172/1/67
f 177/1/67 178/1/67 179/1/67
f 179/1/67 178/1/67 180/1/67
f 181/1/67 174/1/67 176/1/67
f 180/1/67 181/1/67 179/1/67
f 181/1/67 180/1/67 182/1/67
f 174/1/67 181/1/67 183/1/67
f 182/1/67 183/1/67 181/1/67
f 184/1/67 183/1/67 182/1/67
f 183/1/67 184/1/67 185/1/67
f 183/1/67 185/1/67 186/1/67
f 186/1/67 185/1/67 187/1/67
f 188/1/68 189/1/68 190/1/68
f 191/1/68 190/1/68 189/1/68
f 190/1/68 191/1/68 192/1/68
f 189/1/68 188/1/68 193/1/68
f 188/1/68 190/1/68 194/1/68
f 195/1/68 190/1/68 192/1/68
f 192/1/68 196/1/68 195/1/68
f 197/1/68 195/1/68 196/1/68
f 195/1/68 197/1/68 198/1/68
f 197/1/68 199/1/68 198/1/68
f 198/1/68 199/1/68 200/1/68
f 200/1/68 199/1/68 201/1/68
f 201/1/68 188/1/68 194/1/68
f 199/1/68 188/1/68 201/1/68
f 202/1/68 193/1/68 188/1/68
f 193/1/68 202/1/68 203/1/68
f 202/1/68 204/1/68 203/1/68
f 204/1/68 202/1/68 205/1/68
f 205/1/68 206/1/68 204/1/68
f 207/1/67 208/1/67 209/1/67
f 209/1/67 210/1/67 207/1/67
f 209/1/67 211/1/67 210/1/67
f 212/1/67 211/1/67 209/1/67
f 213/1/67 211/1/67 212/1/67
f 214/1/67 211/1/67 213/1/67
f 211/1/67 214/1/67 215/1/67
f 216/1/67 215/1/67 214/1/67
f 217/1/68 218/1/68 219/1/68
f 218/1/68 217/1/68 220/1/68
f 221/1/68 220/1/68 217/1/68
f 220/1/68 221/1/68 222/1/68
f 220/1/68 222/1/68 223/1/68
f 220/1/68 223/1/68 224/1/68
f 223/1/68 225/1/68 224/1/68
f 225/1/68 223/1/68 226/1/68
f 227/1/67 228/1/67 229/1/67
f 228/1/67 230/1/67 231/1/67
f 230/1/67 228/1/67 227/1/67
f 227/1/67 232/1/67 230/1/67
f 233/1/67 230/1/67 232/1/67
f 233/1/67 232/1/67 234/1/67
f 232/1/67 227/1/67 235/1/67
f 227/1/67 236/1/67 235/1/67
f 236/1/67 227/1/67 237/1/67
f 237/1/67 238/1/67 236/1/67
f 227/1/67 229/1/67 239/1/67
f 229/1/67 240/1/67 239/1/67
f 240/1/67 229/1/67 241/1/67
f 241/1/67 229/1/67 242/1/67
f 240/1/67 241/1/67 243/1/67
f 244/1/73 245/1/74 246/1/75
f 247/1/31 245/1/74 244/1/73
f 246/1/75 248/1/34 244/1/73
f 245/1/74 247/1/31 249/1/3
f 250/1/35 248/1/34 246/1/75
f 249/1/3 247/1/31 251/1/31
f 250/1/35 252/1/2 248/1/34
f 249/1/3 251/1/31 253/1/3
f 252/1/2 250/1/35 254/1/35
f 249/1/3 253/1/3 255/1/2
f 255/1/2 253/1/3 252/1/2
f 255/1/2 252/1/2 254/1/35
f 256/1/68 257/1/68 258/1/68
f 256/1/68 259/1/68 257/1/68
f 259/1/68 260/1/68 257/1/68
f 259/1/68 256/1/68 261/1/68
f 256/1/68 262/1/68 261/1/68
f 262/1/68 256/1/68 263/1/68
f 263/1/68 264/1/68 265/1/68
f 265/1/68 262/1/68 263/1/68
f 262/1/68 265/1/68 266/1/68
f 265/1/68 267/1/68 266/1/68
f 266/1/68 267/1/68 268/1/68
f 262/1/68 266/1/68 269/1/68
f 262/1/68 269/1/68 270/1/68
f 262/1/68 270/1/68 271/1/68
f 270/1/68 272/1/68 271/1/68
f 273/1/67 274/1/67 275/1/67
f 275/1/67 274/1/67 276/1/67
f 275/1/67 276/1/67 277/1/67
f 277/1/67 278/1/67 275/1/67
f 274/1/67 273/1/67 279/1/67
f 273/1/67 280/1/67 279/1/67
f 279/1/67 280/1/67 281/1/67
f 280/1/67 273/1/67 282/1/67
f 283/1/68 284/1/68 285/1/68
f 286/1/68 284/1/68 283/1/68
f 286/1/68 283/1/68 287/1/68
f 286/1/68 288/1/68 284/1/68
f 288/1/68 286/1/68 289/1/68
f 288/1/68 289/1/68 290/1/68
f 290/1/68 289/1/68 291/1/68
f 291/1/68 289/1/68 292/1/68
f 293/1/67 294/1/67 295/1/67
f 294/1/67 293/1/67 296/1/67
f 296/1/67 293/1/67 297/1/67
f 296/1/67 297/1/67 298/1/67
f 297/1/67 299/1/67 298/1/67
f 299/1/67 297/1/67 300/1/67
f 300/1/67 301/1/67 299/1/67
f 301/1/67 300/1/67 302/1/67
f 301/1/67 302/1/67 303/1/67
f 301/1/67 303/1/67 304/1/67
f 305/1/67 304/1/67 303/1/67
f 304/1/67 305/1/67 306/1/67
f 306/1/67 305/1/67 307/1/67
f 308/1/67 307/1/67 305/1/67
f 309/1/68 310/1/68 311/1/68
f 310/1/68 309/1/68 312/1/68
f 311/1/68 313/1/68 309/1/68
f 313/1/68 311/1/68 314/1/68
f 313/1/68 314/1/68 315/1/68
f 313/1/68 315/1/68 316/1/68
f 317/1/68 316/1/68 315/1/68
f 316/1/68 317/1/68 318/1/68
f 317/1/68 319/1/68 318/1/68
f 319/1/68 317/1/68 320/1/68
f 319/1/68 320/1/68 321/1/68
f 321/1/68 320/1/68 322/1/68
f 323/1/68 321/1/68 322/1/68
f 321/1/68 323/1/68 324/1/68
f 325/1/67 326/1/67 327/1/67
f 328/1/67 327/1/67 326/1/67
f 329/1/67 327/1/67 328/1/67
f 326/1/67 325/1/67 330/1/67
f 328/1/67 331/1/67 329/1/67
f 329/1/67 331/1/67 332/1/67
f 332/1/67 331/1/67 333/1/67
f 331/1/67 334/1/67 333/1/67
f 334/1/67 331/1/67 335/1/67
f 326/1/67 336/1/67 328/1/67
f 336/1/67 334/1/67 335/1/67
f 336/1/67 326/1/67 337/1/67
f 336/1/67 338/1/67 334/1/67
f 337/1/67 338/1/67 336/1/67
f 339/1/67 338/1/67 337/1/67
f 338/1/67 339/1/67 340/1/67
f 338/1/67 340/1/67 341/1/67
f 342/1/67 338/1/67 341/1/67
f 340/1/67 339/1/67 343/1/67
f 338/1/67 342/1/67 344/1/67
f 344/1/67 342/1/67 343/1/67
f 343/1/67 339/1/67 330/1/67
f 343/1/67 325/1/67 344/1/67
f 325/1/67 343/1/67 330/1/67
f 345/1/68 346/1/68 347/1/68
f 346/1/68 348/1/68 347/1/68
f 348/1/68 349/1/68 347/1/68
f 346/1/68 350/1/68 348/1/68
f 351/1/68 349/1/68 348/1/68
f 350/1/68 346/1/68 352/1/68
f 349/1/68 351/1/68 353/1/68
f 350/1/68 352/1/68 354/1/68
f 355/1/68 346/1/68 345/1/68
f 345/1/68 354/1/68 355/1/68
f 354/1/68 345/1/68 353/1/68
f 354/1/68 356/1/68 355/1/68
f 356/1/68 354/1/68 352/1/68
f 354/1/68 353/1/68 357/1/68
f 351/1/68 357/1/68 353/1/68
f 357/1/68 358/1/68 354/1/68
f 357/1/68 351/1/68 359/1/68
f 358/1/68 357/1/68 360/1/68
f 351/1/68 361/1/68 359/1/68
f 362/1/68 358/1/68 360/1/68
f 362/1/68 359/1/68 361/1/68
f 358/1/68 362/1/68 363/1/68
f 362/1/68 361/1/68 364/1/68
f 364/1/68 363/1/68 362/1/68
f 365/1/76 366/1/76 367/1/76
f 366/1/76 365/1/76 368/1/76
f 368/1/76 369/1/76 366/1/76
f 370/1/76 366/1/76 369/1/76
f 369/1/76 371/1/76 370/1/76
f 372/1/76 370/1/76 371/1/76
f 373/1/77 374/1/77 375/1/77
f 376/1/77 374/1/77 373/1/77
f 377/1/77 375/1/77 374/1/77
f 375/1/77 377/1/77 378/1/77
f 379/1/77 378/1/77 377/1/77
f 378/1/77 379/1/77 380/1/77
f 381/1/35 382/1/35 383/1/35
f 384/1/35 383/1/35 382/1/35
f 385/1/78 386/1/78 387/1/79
f 387/1/79 386/1/78 388/1/79
f 388/1/79 389/1/80 387/1/79
f 389/1/80 388/1/79 390/1/80
f 391/1/74 392/1/74 393/1/34
f 393/1/34 394/1/34 391/1/74
f 392/1/74 391/1/74 395/1/3
f 393/1/34 396/1/2 394/1/34
f 397/1/81 392/1/74 395/1/3
f 393/1/34 398/1/2 396/1/2
f 397/1/81 395/1/3 398/1/2
f 398/1/2 395/1/3 396/1/2
f 399/1/34 400/1/34 401/1/74
f 401/1/74 400/1/34 402/1/73
f 399/1/34 403/1/2 400/1/34
f 401/1/74 402/1/73 404/1/3
f 399/1/34 405/1/2 403/1/2
f 405/1/2 404/1/3 403/1/2
f 406/1/81 401/1/74 404/1/3
f 406/1/81 404/1/3 405/1/2
f 407/1/82 408/1/34 409/1/74
f 409/1/74 408/1/34 410/1/73
f 407/1/82 411/1/2 408/1/34
f 410/1/73 412/1/3 409/1/74
f 407/1/82 413/1/2 411/1/2
f 413/1/2 412/1/3 411/1/2
f 414/1/3 412/1/3 413/1/2
f 414/1/3 409/1/74 412/1/3
f 415/1/83 416/1/83 417/1/84
f 417/1/84 418/1/84 415/1/83
f 418/1/84 417/1/84 419/1/85
f 419/1/85 420/1/86 418/1/84
f 420/1/86 419/1/85 421/1/87
f 421/1/87 422/1/87 420/1/86
f 422/1/87 421/1/87 423/1/88
f 423/1/88 424/1/89 422/1/87
f 424/1/89 423/1/88 425/1/90
f 425/1/90 426/1/91 424/1/89
f 425/1/90 427/1/92 426/1/91
f 428/1/92 427/1/92 425/1/90
f 428/1/92 429/1/93 427/1/92
f 429/1/93 428/1/92 430/1/93
f 431/1/3 432/1/31 433/1/3
f 434/1/31 433/1/3 432/1/31
f 435/1/3 431/1/3 433/1/3
f 431/1/3 435/1/3 436/1/3
f 435/1/3 437/1/74 436/1/3
f 438/1/73 436/1/3 437/1/74
f 438/1/73 437/1/74 439/1/74
f 439/1/74 440/1/74 438/1/73
f 441/1/31 440/1/74 439/1/74
f 440/1/74 441/1/31 442/1/31
