# Blender 5.2.1 LTS
# www.blender.org
mtllib Pearl rifle wrapsplit other mag.mtl
o maybe_correct_sized_bc_mag.023
v 0.096178 0.197732 -0.081743
v 0.078211 0.277395 -0.081743
v 0.096178 0.197732 0.079878
v 0.098328 0.109770 0.079878
v 0.098328 0.109770 -0.081743
v 0.084467 0.021417 0.079878
v 0.084467 0.021417 -0.081743
v 0.062600 -0.067132 0.079878
v 0.062600 -0.067133 -0.081743
v 0.024429 -0.140059 0.079878
v 0.024429 -0.140059 -0.081743
v 0.078211 0.277395 0.079878
v 0.102227 0.277982 -0.081743
v 0.120194 0.198319 -0.081743
v 0.102227 0.277982 0.079878
v 0.120194 0.198319 0.079878
v 0.122540 0.102351 -0.081743
v 0.122540 0.102351 0.079878
v 0.116684 0.014194 -0.081743
v 0.116684 0.014194 0.079878
v 0.086812 -0.074551 -0.081743
v 0.086812 -0.074551 0.079878
v 0.048544 -0.147480 -0.081743
v 0.048544 -0.147480 0.079878
v 0.005871 0.291550 0.079878
v 0.005871 0.291550 -0.081743
v 0.024031 0.203979 -0.081743
v 0.024031 0.203979 0.079878
v 0.026181 0.116017 -0.081743
v 0.026181 0.116017 0.079878
v 0.020325 0.027859 -0.081743
v 0.020325 0.027859 0.079878
v -0.009547 -0.060885 -0.081743
v -0.009547 -0.060885 0.079878
v -0.047816 -0.133815 -0.081743
v -0.047816 -0.133815 0.079878
v -0.090292 0.297210 -0.081743
v -0.072328 0.217644 -0.081743
v -0.090292 0.297210 0.079878
v -0.072328 0.217644 0.079878
v -0.062270 0.129875 -0.081743
v -0.062270 0.129875 0.079878
v -0.076033 0.041525 -0.081743
v -0.076033 0.041525 0.079878
v -0.105905 -0.047220 -0.081743
v -0.105905 -0.047220 0.079878
v -0.144174 -0.120149 -0.081743
v -0.144174 -0.120149 0.079878
v -0.018146 0.290963 -0.081743
v 0.005871 0.291550 -0.081743
v -0.018146 0.290963 0.079878
v 0.005871 0.291550 0.079878
v 0.078211 0.277395 -0.081743
v 0.102227 0.277982 -0.081743
v 0.078211 0.277395 0.079878
v 0.102227 0.277982 0.079878
v -0.114504 0.304628 -0.081743
v -0.090292 0.297210 -0.081743
v -0.114504 0.304628 0.079878
v -0.090292 0.297210 0.079878
v -0.000180 0.211398 0.079878
v -0.018146 0.290963 0.079878
v 0.005871 0.291550 0.079878
v 0.024031 0.203979 0.079878
v 0.001969 0.123435 0.079878
v 0.026181 0.116017 0.079878
v -0.003691 0.027272 0.079878
v 0.020325 0.027859 0.079878
v -0.009547 -0.060885 0.079878
v -0.033759 -0.053467 0.079878
v -0.047816 -0.133815 0.079878
v -0.071734 -0.134399 0.079878
v 0.096178 0.197732 0.079878
v 0.078211 0.277395 0.079878
v 0.102227 0.277982 0.079878
v 0.120194 0.198319 0.079878
v 0.098328 0.109770 0.079878
v 0.122540 0.102351 0.079878
v 0.084467 0.021417 0.079878
v 0.116684 0.014194 0.079878
v 0.086812 -0.074551 0.079878
v 0.062600 -0.067132 0.079878
v 0.048544 -0.147480 0.079878
v 0.024429 -0.140059 0.079878
v -0.096540 0.225063 0.079878
v -0.114504 0.304628 0.079878
v -0.090292 0.297210 0.079878
v -0.072328 0.217644 0.079878
v -0.094194 0.129095 0.079878
v -0.062270 0.129875 0.079878
v -0.100050 0.040938 0.079878
v -0.076033 0.041525 0.079878
v -0.105905 -0.047220 0.079878
v -0.130117 -0.039801 0.079878
v -0.144174 -0.120149 0.079878
v -0.168092 -0.120733 0.079878
v -0.096540 0.225063 -0.081743
v -0.114504 0.304628 -0.081743
v -0.096540 0.225063 0.079878
v -0.094194 0.129095 0.079878
v -0.094194 0.129095 -0.081743
v -0.100050 0.040938 0.079878
v -0.100050 0.040938 -0.081743
v -0.130117 -0.039801 0.079878
v -0.130117 -0.039801 -0.081743
v -0.168092 -0.120733 0.079878
v -0.168092 -0.120733 -0.081743
v -0.114504 0.304628 0.079878
v -0.000180 0.211398 -0.081743
v -0.018146 0.290963 -0.081743
v -0.000180 0.211398 0.079878
v 0.001969 0.123435 0.079878
v 0.001969 0.123435 -0.081743
v -0.003691 0.027272 0.079878
v -0.003691 0.027272 -0.081743
v -0.033759 -0.053467 0.079878
v -0.033759 -0.053467 -0.081743
v -0.071734 -0.134399 0.079878
v -0.071734 -0.134399 -0.081743
v -0.018146 0.290963 0.079878
v -0.047816 -0.133815 -0.081743
v -0.071734 -0.134399 -0.081743
v -0.047816 -0.133815 0.079878
v -0.071734 -0.134399 0.079878
v 0.048544 -0.147480 -0.081743
v 0.024429 -0.140059 -0.081743
v 0.048544 -0.147480 0.079878
v 0.024429 -0.140059 0.079878
v -0.144174 -0.120149 -0.081743
v -0.168092 -0.120733 -0.081743
v -0.144174 -0.120149 0.079878
v -0.168092 -0.120733 0.079878
v 0.005871 0.291550 -0.081743
v -0.018146 0.290963 -0.081743
v -0.000180 0.211398 -0.081743
v 0.024031 0.203979 -0.081743
v 0.001969 0.123435 -0.081743
v 0.026181 0.116017 -0.081743
v -0.003691 0.027272 -0.081743
v 0.020325 0.027859 -0.081743
v -0.009547 -0.060885 -0.081743
v -0.033759 -0.053467 -0.081743
v -0.047816 -0.133815 -0.081743
v -0.071734 -0.134399 -0.081743
v 0.102227 0.277982 -0.081743
v 0.078211 0.277395 -0.081743
v 0.096178 0.197732 -0.081743
v 0.120194 0.198319 -0.081743
v 0.098328 0.109770 -0.081743
v 0.122540 0.102351 -0.081743
v 0.084467 0.021417 -0.081743
v 0.116684 0.014194 -0.081743
v 0.086812 -0.074551 -0.081743
v 0.062600 -0.067133 -0.081743
v 0.048544 -0.147480 -0.081743
v 0.024429 -0.140059 -0.081743
v -0.090292 0.297210 -0.081743
v -0.114504 0.304628 -0.081743
v -0.096540 0.225063 -0.081743
v -0.072328 0.217644 -0.081743
v -0.094194 0.129095 -0.081743
v -0.062270 0.129875 -0.081743
v -0.100050 0.040938 -0.081743
v -0.076033 0.041525 -0.081743
v -0.105905 -0.047220 -0.081743
v -0.130117 -0.039801 -0.081743
v -0.144174 -0.120149 -0.081743
v -0.168092 -0.120733 -0.081743
vn -0.9919 -0.1268 -0.0000
vn -0.9818 -0.1897 -0.0000
vn -0.9995 0.0306 -0.0000
vn -0.9737 0.2280 -0.0000
vn -0.9736 0.2281 -0.0000
vn -0.9250 0.3800 -0.0000
vn -0.9005 0.4348 -0.0000
vn 0.9818 0.1898 -0.0000
vn 0.9919 0.1269 -0.0000
vn 0.9995 -0.0306 -0.0000
vn 0.9737 -0.2280 -0.0000
vn 0.9736 -0.2281 -0.0000
vn 0.9250 -0.3800 -0.0000
vn 0.9005 -0.4348 -0.0000
vn 0.9818 0.1897 -0.0000
vn 0.1258 0.9921 -0.0000
vn 0.1258 0.9921 0.0001
vn 0.1263 0.9920 -0.0000
vn 0.1263 0.9920 -0.0001
vn -0.0000 -0.0000 1.0000
vn -0.9919 -0.1269 -0.0000
vn -0.9006 0.4347 -0.0000
vn -0.1248 -0.9922 -0.0000
vn -0.1250 -0.9922 -0.0000
vn -0.1250 -0.9922 -0.0001
vn -0.1253 -0.9921 -0.0000
vn -0.0000 -0.0000 -1.0000
vt 27.899200 -30.854900
vt 28.100800 -30.854900
vt 27.899200 -30.752600
vt 28.100800 -30.969000
vt 27.899200 -30.969000
vt 28.100800 -31.079700
vt 27.899200 -31.079700
vt 28.100800 -31.187099
vt 27.899200 -31.187099
vt 28.100800 -31.279400
vt 27.899200 -31.279400
vt 28.100800 -30.752600
vt 28.100800 -30.757700
vt 27.899200 -30.757700
vt 28.100800 -30.859900
vt 27.899200 -30.859900
vt 28.100800 -30.974001
vt 27.899200 -30.974001
vt 28.100800 -31.084801
vt 27.899200 -31.084801
vt 28.100800 -31.192101
vt 27.899200 -31.192101
vt 28.100800 -31.284401
vt 27.899200 -31.284401
vt 27.899200 -30.739100
vt 28.100800 -30.841400
vt 28.100800 -30.739100
vt 27.899200 -30.841400
vt 28.100800 -30.955500
vt 27.899200 -30.955500
vt 28.100800 -31.066200
vt 27.899200 -31.066200
vt 28.100800 -31.173599
vt 27.899200 -31.173599
vt 28.100800 -31.265900
vt 27.899200 -31.265900
vt 28.100800 -30.720600
vt 27.899200 -30.720600
vt 28.100800 -30.822800
vt 27.899200 -30.822800
vt 28.100800 -30.937000
vt 27.899200 -30.937000
vt 28.100800 -31.047701
vt 27.899200 -31.047701
vt 28.100800 -31.155001
vt 27.899200 -31.155001
vt 28.100800 -31.247400
vt 27.899200 -31.247400
vt 27.986099 -31.100800
vt 27.986099 -30.899200
vt 27.953600 -31.100800
vt 27.953600 -30.899200
vt 27.866600 -31.100800
vt 27.866600 -30.899200
vt 27.834101 -31.100800
vt 27.834101 -30.899200
vt 28.105499 -31.100800
vt 28.105499 -30.899200
vt 28.073000 -31.100800
vt 28.073000 -30.899200
vt 28.030701 -30.836300
vt 28.046400 -30.739100
vt 28.013901 -30.734100
vt 28.063200 -30.841400
vt 28.035299 -30.950399
vt 28.067801 -30.955500
vt 28.018101 -31.061199
vt 28.050600 -31.066200
vt 28.011700 -31.173599
vt 27.979200 -31.168501
vt 27.964701 -31.265900
vt 27.932199 -31.260900
vt 28.150200 -30.854900
vt 28.165899 -30.757700
vt 28.133400 -30.752600
vt 28.182600 -30.859900
vt 28.154800 -30.969000
vt 28.187201 -30.974001
vt 28.137600 -31.079700
vt 28.170099 -31.084801
vt 28.131100 -31.192101
vt 28.098600 -31.187099
vt 28.084101 -31.284401
vt 28.051600 -31.279400
vt 27.911301 -30.817801
vt 27.927000 -30.720600
vt 27.894501 -30.715599
vt 27.943800 -30.822800
vt 27.915899 -30.931900
vt 27.948400 -30.937000
vt 27.898701 -31.042601
vt 27.931200 -31.047701
vt 27.892200 -31.155001
vt 27.859800 -31.150000
vt 27.845200 -31.247400
vt 27.812799 -31.242300
vt 27.899200 -30.817801
vt 28.100800 -30.817801
vt 27.899200 -30.715599
vt 28.100800 -30.931900
vt 27.899200 -30.931900
vt 28.100800 -31.042601
vt 27.899200 -31.042601
vt 28.100800 -31.150000
vt 27.899200 -31.150000
vt 28.100800 -31.242300
vt 27.899200 -31.242300
vt 28.100800 -30.715599
vt 27.899200 -30.836300
vt 28.100800 -30.836300
vt 27.899200 -30.734100
vt 28.100800 -30.950399
vt 27.899200 -30.950399
vt 28.100800 -31.061199
vt 27.899200 -31.061199
vt 28.100800 -31.168501
vt 27.899200 -31.168501
vt 28.100800 -31.260900
vt 27.899200 -31.260900
vt 28.100800 -30.734100
vt 27.964701 -31.100800
vt 27.964701 -30.899200
vt 27.932199 -31.100800
vt 27.932199 -30.899200
vt 28.084101 -31.100800
vt 28.084101 -30.899200
vt 28.051600 -31.100800
vt 28.051600 -30.899200
vt 27.845200 -31.100800
vt 27.845200 -30.899200
vt 27.812799 -31.100800
vt 27.812799 -30.899200
vt 27.953600 -30.739100
vt 27.969299 -30.836300
vt 27.986099 -30.734100
vt 27.936800 -30.841400
vt 27.964701 -30.950399
vt 27.932199 -30.955500
vt 27.981899 -31.061199
vt 27.949400 -31.066200
vt 27.988300 -31.173599
vt 28.020800 -31.168501
vt 28.035299 -31.265900
vt 28.067801 -31.260900
vt 27.834101 -30.757700
vt 27.849800 -30.854900
vt 27.866600 -30.752600
vt 27.817400 -30.859900
vt 27.845200 -30.969000
vt 27.812799 -30.974001
vt 27.862400 -31.079700
vt 27.829901 -31.084801
vt 27.868900 -31.192101
vt 27.901400 -31.187099
vt 27.915899 -31.284401
vt 27.948400 -31.279400
vt 28.073000 -30.720600
vt 28.088699 -30.817801
vt 28.105499 -30.715599
vt 28.056200 -30.822800
vt 28.084101 -30.931900
vt 28.051600 -30.937000
vt 28.101299 -31.042601
vt 28.068800 -31.047701
vt 28.107800 -31.155001
vt 28.140200 -31.150000
vt 28.154800 -31.247400
vt 28.187201 -31.242300
s 1
usemtl Meshpart2Mtl.004
f 1/1/1 3/2/1 2/3/2
f 1/1/1 4/4/3 3/2/1
f 5/5/3 4/4/3 1/1/1
f 5/5/3 6/6/4 4/4/3
f 7/7/5 6/6/4 5/5/3
f 7/7/5 8/8/6 6/6/4
f 9/9/6 8/8/6 7/7/5
f 9/9/6 10/10/7 8/8/6
f 11/11/7 10/10/7 9/9/6
f 2/3/2 3/2/1 12/12/2
f 13/13/8 15/14/8 14/15/9
f 14/15/9 15/14/8 16/16/9
f 14/15/9 16/16/9 17/17/10
f 17/17/10 16/16/9 18/18/10
f 18/18/10 19/19/11 17/17/10
f 19/19/11 18/18/10 20/20/12
f 19/19/11 20/20/12 21/21/13
f 21/21/13 20/20/12 22/22/13
f 21/21/13 22/22/13 23/23/14
f 23/23/14 22/22/13 24/24/14
f 25/25/15 27/26/9 26/27/8
f 27/26/9 25/25/15 28/28/9
f 27/26/9 28/28/9 29/29/10
f 29/29/10 28/28/9 30/30/10
f 29/29/10 30/30/10 31/31/12
f 31/31/12 30/30/10 32/32/12
f 31/31/12 32/32/12 33/33/13
f 33/33/13 32/32/12 34/34/13
f 33/33/13 34/34/13 35/35/14
f 35/35/14 34/34/13 36/36/14
f 37/37/8 39/38/15 38/39/9
f 38/39/9 39/38/15 40/40/9
f 38/39/9 40/40/9 41/41/10
f 41/41/10 40/40/9 42/42/10
f 41/41/10 42/42/10 43/43/12
f 43/43/12 42/42/10 44/44/12
f 43/43/12 44/44/12 45/45/13
f 45/45/13 44/44/12 46/46/13
f 45/45/13 46/46/13 47/47/14
f 47/47/14 46/46/13 48/48/14
f 49/49/16 51/50/16 50/51/17
f 50/51/17 51/50/16 52/52/16
f 53/53/16 55/54/16 54/55/17
f 54/55/17 55/54/16 56/56/16
f 57/57/18 59/58/19 58/59/18
f 58/59/18 59/58/19 60/60/18
f 61/61/20 63/62/20 62/63/20
f 63/62/20 61/61/20 64/64/20
f 65/65/20 64/64/20 61/61/20
f 64/64/20 65/65/20 66/66/20
f 67/67/20 66/66/20 65/65/20
f 66/66/20 67/67/20 68/68/20
f 69/69/20 68/68/20 67/67/20
f 67/67/20 70/70/20 69/69/20
f 71/71/20 69/69/20 70/70/20
f 70/70/20 72/72/20 71/71/20
f 73/73/20 75/74/20 74/75/20
f 75/74/20 73/73/20 76/76/20
f 77/77/20 76/76/20 73/73/20
f 76/76/20 77/77/20 78/78/20
f 79/79/20 78/78/20 77/77/20
f 78/78/20 79/79/20 80/80/20
f 81/81/20 80/80/20 79/79/20
f 79/79/20 82/82/20 81/81/20
f 83/83/20 81/81/20 82/82/20
f 82/82/20 84/84/20 83/83/20
f 85/85/20 87/86/20 86/87/20
f 87/86/20 85/85/20 88/88/20
f 89/89/20 88/88/20 85/85/20
f 88/88/20 89/89/20 90/90/20
f 91/91/20 90/90/20 89/89/20
f 90/90/20 91/91/20 92/92/20
f 93/93/20 92/92/20 91/91/20
f 91/91/20 94/94/20 93/93/20
f 95/95/20 93/93/20 94/94/20
f 94/94/20 96/96/20 95/95/20
f 97/97/1 99/98/21 98/99/2
f 97/97/1 100/100/3 99/98/21
f 101/101/3 100/100/3 97/97/1
f 101/101/3 102/102/5 100/100/3
f 103/103/5 102/102/5 101/101/3
f 103/103/5 104/104/6 102/102/5
f 105/105/6 104/104/6 103/103/5
f 105/105/6 106/106/7 104/104/6
f 107/107/22 106/106/7 105/105/6
f 98/99/2 99/98/21 108/108/2
f 109/109/1 111/110/1 110/111/2
f 109/109/1 112/112/3 111/110/1
f 113/113/3 112/112/3 109/109/1
f 113/113/3 114/114/5 112/112/3
f 115/115/4 114/114/5 113/113/3
f 115/115/4 116/116/6 114/114/5
f 117/117/6 116/116/6 115/115/4
f 117/117/6 118/118/22 116/116/6
f 119/119/22 118/118/22 117/117/6
f 110/111/2 111/110/1 120/120/2
f 121/121/23 123/122/23 122/123/23
f 122/123/23 123/122/23 124/124/23
f 125/125/24 127/126/25 126/127/26
f 126/127/26 127/126/25 128/128/24
f 129/129/23 131/130/23 130/131/23
f 130/131/23 131/130/23 132/132/23
f 133/133/27 135/134/27 134/135/27
f 135/134/27 133/133/27 136/136/27
f 136/136/27 137/137/27 135/134/27
f 137/137/27 136/136/27 138/138/27
f 138/138/27 139/139/27 137/137/27
f 139/139/27 138/138/27 140/140/27
f 141/141/27 139/139/27 140/140/27
f 139/139/27 141/141/27 142/142/27
f 143/143/27 142/142/27 141/141/27
f 142/142/27 143/143/27 144/144/27
f 145/145/27 147/146/27 146/147/27
f 147/146/27 145/145/27 148/148/27
f 148/148/27 149/149/27 147/146/27
f 149/149/27 148/148/27 150/150/27
f 150/150/27 151/151/27 149/149/27
f 151/151/27 150/150/27 152/152/27
f 153/153/27 151/151/27 152/152/27
f 151/151/27 153/153/27 154/154/27
f 155/155/27 154/154/27 153/153/27
f 154/154/27 155/155/27 156/156/27
f 157/157/27 159/158/27 158/159/27
f 159/158/27 157/157/27 160/160/27
f 160/160/27 161/161/27 159/158/27
f 161/161/27 160/160/27 162/162/27
f 162/162/27 163/163/27 161/161/27
f 163/163/27 162/162/27 164/164/27
f 165/165/27 163/163/27 164/164/27
f 163/163/27 165/165/27 166/166/27
f 167/167/27 166/166/27 165/165/27
f 166/166/27 167/167/27 168/168/27
